<?xml version="1.0" encoding="UTF-8" standalone="no"?>
<svg
   fill="none"
   height="24"
   viewBox="0 0 24 24"
   width="24"
   version="1.1"
   id="svg2"
   sodipodi:docname="export.svg"
   inkscape:export-filename="export.svg"
   inkscape:export-xdpi="96"
   inkscape:export-ydpi="96"
   inkscape:version="1.4 (86a8ad7, 2024-10-11)"
   xmlns:inkscape="http://www.inkscape.org/namespaces/inkscape"
   xmlns:sodipodi="http://sodipodi.sourceforge.net/DTD/sodipodi-0.dtd"
   xmlns="http://www.w3.org/2000/svg"
   xmlns:svg="http://www.w3.org/2000/svg">
  <defs
     id="defs2" />
  <sodipodi:namedview
     id="namedview2"
     pagecolor="#ffffff"
     bordercolor="#000000"
     borderopacity="0.25"
     inkscape:showpageshadow="2"
     inkscape:pageopacity="0.0"
     inkscape:pagecheckerboard="0"
     inkscape:deskcolor="#d1d1d1"
     inkscape:zoom="48.625"
     inkscape:cx="10.313625"
     inkscape:cy="17.182519"
     inkscape:window-width="2560"
     inkscape:window-height="1369"
     inkscape:window-x="1912"
     inkscape:window-y="73"
     inkscape:window-maximized="1"
     inkscape:current-layer="svg2" />
  <path
     d="M 11.997451,2.0773108 10.935156,1.0448432 11.997451,0.01239008 13.059745,1.0448432 Z m 1.502324,13.1411082 c 0,0.806426 -0.672591,1.460123 -1.502324,1.460123 -0.829734,0 -1.502325,-0.653697 -1.502325,-1.460123 z M 3.4235182,8.3454589 10.935156,1.0448432 13.059745,3.1097785 5.5481359,10.41038 Z M 13.059745,1.0448432 20.571368,8.3454589 18.446781,10.41038 10.935156,3.1097785 Z m 0.44003,1.0324676 V 15.218419 H 10.495126 V 2.0773108 Z"
     fill="#33363f"
     id="path1"
     style="stroke-width:1.48108;fill:#ffffff" />
  <path
     d="m 1.4811776,18.138665 v 1.460124 c 0,1.612852 1.3452266,2.920246 3.0046495,2.920246 H 19.509074 c 1.659468,0 3.004649,-1.307394 3.004649,-2.920246 v -1.460124"
     stroke="#33363f"
     stroke-width="2.96214"
     id="path2" />
  <path
     style="fill:#ffffff;stroke:none;stroke-width:0;stroke-dasharray:none"
     d="M 4.1131105,23.975659 C 3.5580726,23.927461 3.0194307,23.776996 2.5089974,23.527564 1.0995053,22.838791 0.18572321,21.538724 0.03164939,20.002962 0.01989775,19.885826 0.01028278,19.420787 0.01028278,18.969543 V 18.1491 H 1.4793107 2.9483385 l 0.0077,0.858612 c 0.0086,0.958484 0.00611,0.939473 0.1627472,1.241929 0.1846832,0.356606 0.5350464,0.629492 0.9646634,0.751343 0.1272531,0.03609 0.4399659,0.03758 7.9165479,0.03758 7.445788,0 7.789871,-0.0016 7.917738,-0.03719 0.433711,-0.120649 0.811843,-0.428741 0.989236,-0.806001 0.124894,-0.265613 0.128247,-0.295207 0.136847,-1.208226 l 0.0079,-0.838047 h 1.469002 1.468999 l -2.12e-4,0.77635 c -1.17e-4,0.426992 -0.0098,0.887403 -0.02148,1.023136 -0.05858,0.679696 -0.282688,1.354379 -0.643176,1.93626 -0.723572,1.167956 -1.992612,1.94652 -3.395259,2.08301 -0.154887,0.01507 -2.632847,0.02079 -7.979434,0.0184 -4.2651306,-0.0019 -7.791801,-0.0067 -7.8370453,-0.0106 z"
     id="path3" />
</svg>
