<?xml version="1.0" encoding="UTF-8" standalone="no"?>
<svg
   fill="none"
   height="24"
   viewBox="0 0 24 24"
   width="24"
   version="1.1"
   id="svg2"
   sodipodi:docname="import.svg"
   inkscape:export-filename="import.svg"
   inkscape:export-xdpi="96"
   inkscape:export-ydpi="96"
   inkscape:version="1.4 (86a8ad7, 2024-10-11)"
   xmlns:inkscape="http://www.inkscape.org/namespaces/inkscape"
   xmlns:sodipodi="http://sodipodi.sourceforge.net/DTD/sodipodi-0.dtd"
   xmlns="http://www.w3.org/2000/svg"
   xmlns:svg="http://www.w3.org/2000/svg">
  <defs
     id="defs2" />
  <sodipodi:namedview
     id="namedview2"
     pagecolor="#ffffff"
     bordercolor="#000000"
     borderopacity="0.25"
     inkscape:showpageshadow="2"
     inkscape:pageopacity="0.0"
     inkscape:pagecheckerboard="0"
     inkscape:deskcolor="#d1d1d1"
     inkscape:zoom="48.625"
     inkscape:cx="12"
     inkscape:cy="12"
     inkscape:window-width="2560"
     inkscape:window-height="1369"
     inkscape:window-x="1912"
     inkscape:window-y="73"
     inkscape:window-maximized="1"
     inkscape:current-layer="svg2" />
  <path
     d="M 12,15 10.93935,16.06065 12,17.1213 13.06065,16.06065 Z M 13.5,1.5 C 13.5,0.67158 12.82845,0 12,0 11.17155,0 10.5,0.671565 10.5,1.5 Z M 3.439335,8.560665 10.93935,16.06065 13.06065,13.93935 5.560665,6.439335 Z m 9.621315,7.499985 7.5,-7.499985 -2.1213,-2.12133 -7.5,7.500015 z M 13.5,15 V 1.5 h -3 V 15 Z"
     fill="#33363f"
     id="path1"
     style="stroke-width:1.5;fill:#ffffff" />
  <path
     d="m 1.5,18 v 1.5 c 0,1.6569 1.343145,3 3,3 h 15 c 1.6569,0 3,-1.3431 3,-3 V 18"
     stroke="#33363f"
     stroke-width="3"
     id="path2" />
  <path
     style="fill:#ffffff;stroke-width:0"
     d="M 4.0514139,23.967349 C 2.719769,23.830583 1.5123611,23.098991 0.76012415,21.973094 0.4975737,21.580126 0.26998976,21.070307 0.15356671,20.614323 0.03133526,20.13559 0.01028278,19.877306 0.01028278,18.856433 V 18.005141 H 1.5000907 2.9898986 l 0.00776,0.889461 c 0.0086,0.984994 0.00933,0.99118 0.1516574,1.280205 0.1862437,0.378209 0.5570203,0.680373 0.9637904,0.785439 0.1376245,0.03555 0.4851153,0.03718 7.8971726,0.03718 7.455475,0 7.758318,-0.0014 7.886151,-0.03769 0.417745,-0.118449 0.761306,-0.40196 0.954542,-0.7877 0.141637,-0.282739 0.142762,-0.292227 0.15136,-1.277434 l 0.0078,-0.889461 h 1.489808 1.489807 v 0.851292 c 0,1.020873 -0.02105,1.279157 -0.143284,1.75789 -0.156012,0.611044 -0.48973,1.264491 -0.892226,1.747059 -0.174943,0.209746 -0.540377,0.560503 -0.740068,0.710347 -0.67986,0.510149 -1.453559,0.812647 -2.293439,0.896679 -0.258396,0.02585 -15.6172297,0.02483 -15.8692862,-0.0011 z"
     id="path3" />
</svg>
